
      <svg data-logo="logo" xmlns="http://www.w3.org/2000/svg" viewBox="0 0 248 42">
        <g id="logogram" transform="translate(0, 1) rotate(0) "><path d="M33.724 36.5809C37.7426 32.5622 40.0003 27.1118 40.0003 21.4286C40.0003 15.7454 37.7426 10.2949 33.724 6.27629C29.7054 2.25765 24.2549 1.02188e-06 18.5717 0C12.8885 -1.02188e-06 7.43807 2.25764 3.41943 6.27628L10.4905 13.3473C11.6063 14.4631 13.4081 14.4074 14.8276 13.7181C15.9836 13.1568 17.2622 12.8571 18.5717 12.8571C20.845 12.8571 23.0252 13.7602 24.6326 15.3677C26.2401 16.9751 27.1431 19.1553 27.1431 21.4286C27.1431 22.7381 26.8435 24.0167 26.2822 25.1727C25.5929 26.5922 25.5372 28.394 26.6529 29.5098L33.724 36.5809Z" fill="#FAFAFA"/><path d="M30 40H19.5098C17.9943 40 16.5408 39.398 15.4692 38.3263L1.67368 24.5308C0.60204 23.4592 0 22.0057 0 20.4902V10L30 40Z" fill="#F9CD71"/><path d="M10.7143 39.9999H4.28571C1.91878 39.9999 0 38.0812 0 35.7142V29.2856L10.7143 39.9999Z" fill="#F9CD71"/></g>
        <g id="logotype" transform="translate(46, 8)"><path fill="#ffffff" d="M16.85 26.42L16.85 26.42Q12.86 26.42 10.38 24.60Q7.89 22.78 7.40 19.56L7.40 19.56L10.62 19.56Q11.18 21.41 12.88 22.48Q14.58 23.55 16.92 23.55L16.92 23.55Q19.62 23.55 21.17 22.27Q22.73 20.99 22.73 19.14L22.73 19.14Q22.73 17.53 21.54 16.64Q20.35 15.74 18.46 15.36L18.46 15.36L13.91 14.38Q10.97 13.75 9.64 12.16Q8.31 10.56 8.31 8.01L8.31 8.01Q8.31 4.79 10.36 2.93Q12.41 1.08 16.57 1.08L16.57 1.08Q20 1.08 22.43 2.64Q24.87 4.19 25.53 7.52L25.53 7.52L22.31 7.52Q21.72 5.66 20.26 4.81Q18.81 3.95 16.57 3.95L16.57 3.95Q15.31 3.95 14.14 4.25Q12.96 4.54 12.21 5.37Q11.46 6.19 11.46 7.80L11.46 7.80Q11.46 9.38 12.25 10.25Q13.04 11.12 14.54 11.44L14.54 11.44L19.16 12.42Q22.45 13.08 24.17 14.52Q25.88 15.95 25.88 18.93L25.88 18.93Q25.88 21.38 24.67 23.04Q23.47 24.70 21.42 25.56Q19.37 26.42 16.85 26.42ZM29.91 3.81L29.91 0.31L33.41 0.31L33.41 3.81L29.91 3.81ZM33.16 26L30.19 26L30.19 7.80L33.16 7.80L33.16 26ZM41.45 26L38.45 26L38.45 0.10L41.45 0.10L41.45 26ZM54.51 26L51.36 26L44.50 7.80L47.72 7.80L51.08 17.04L52.86 22.15L53.00 22.15L54.79 17.04L58.15 7.80L61.37 7.80L54.51 26ZM71.14 26.42L71.14 26.42Q68.30 26.42 66.39 25.13Q64.48 23.83 63.54 21.64Q62.59 19.45 62.59 16.83L62.59 16.83Q62.59 13.85 63.68 11.75Q64.77 9.65 66.64 8.52Q68.51 7.38 70.92 7.38L70.92 7.38Q73.17 7.38 74.90 8.41Q76.63 9.44 77.63 11.39Q78.63 13.33 78.63 16.09L78.63 16.09L78.63 17.63L65.75 17.63L65.75 17.81Q65.75 20.57 67.28 22.17Q68.83 23.76 71.20 23.76L71.20 23.76Q72.85 23.76 73.95 23.04Q75.06 22.32 75.34 21.45L75.34 21.45L78.42 21.45Q78.03 23.02 76.95 24.14Q75.86 25.27 74.34 25.84Q72.81 26.42 71.14 26.42ZM70.86 10.11L70.86 10.11Q68.69 10.11 67.30 11.49Q65.92 12.87 65.75 15.04L65.75 15.04L75.55 15.04Q75.41 12.80 74.16 11.46Q72.92 10.11 70.86 10.11ZM85.06 26L82.19 26L82.19 7.80L85.06 7.80L85.06 10.84L85.14 10.84Q85.80 9.41 87.16 8.53Q88.53 7.66 90.39 7.66L90.39 7.66L91.26 7.66L91.26 10.60L90.21 10.60Q88.28 10.60 87.15 11.37Q86.01 12.14 85.45 13.57L85.45 13.57Q85.06 14.62 85.06 16.66L85.06 16.66L85.06 26ZM94.06 7.80L94.06 1.04L96.93 1.04L96.93 7.80L94.06 7.80ZM107.95 26.42L107.95 26.42Q107.05 26.42 106.19 26.26Q105.33 26.11 104.53 25.86L104.53 25.86Q102.91 25.34 101.86 24.14Q100.81 22.95 100.53 21.03L100.53 21.03L103.47 21.03Q103.75 22.32 104.93 23.01Q106.10 23.69 107.88 23.69L107.88 23.69Q109.67 23.69 110.70 22.95Q111.73 22.22 111.73 20.89L111.73 20.89Q111.73 19.95 111.02 19.11Q110.30 18.27 109.08 18.09L109.08 18.09L105.92 17.63Q103.58 17.28 102.23 16.18Q100.88 15.08 100.88 12.91L100.88 12.91Q100.88 11.40 101.72 10.14Q102.56 8.88 104.05 8.13Q105.54 7.38 107.53 7.38L107.53 7.38Q110.37 7.38 112.17 8.76Q113.97 10.14 114.39 12.42L114.39 12.42L111.45 12.42Q110.58 10.04 107.53 10.04L107.53 10.04Q105.86 10.04 104.88 10.81Q103.89 11.58 103.89 12.70L103.89 12.70Q103.89 14.48 106.41 14.87L106.41 14.87L109.63 15.36Q111.17 15.57 112.33 16.11Q113.48 16.66 114.11 17.76Q114.75 18.86 114.75 20.75L114.75 20.75Q114.75 22.57 113.82 23.85Q112.89 25.13 111.35 25.77Q109.81 26.42 107.95 26.42ZM133.93 26L126.23 26L126.23 1.50L133.93 1.50Q137.67 1.50 140.40 2.93Q143.13 4.37 144.62 7.10Q146.11 9.83 146.11 13.68L146.11 13.68Q146.11 17.56 144.62 20.33Q143.13 23.09 140.40 24.55Q137.67 26 133.93 26L133.93 26ZM133.50 4.30L133.50 4.30L129.38 4.30L129.38 23.13L133.50 23.13Q138.16 23.13 140.56 20.68Q142.96 18.23 142.96 13.68L142.96 13.68Q142.96 9.20 140.58 6.75Q138.19 4.30 133.50 4.30ZM157.45 26.42L157.45 26.42Q154.61 26.42 152.70 25.13Q150.80 23.83 149.85 21.64Q148.91 19.45 148.91 16.83L148.91 16.83Q148.91 13.85 149.99 11.75Q151.08 9.65 152.95 8.52Q154.82 7.38 157.24 7.38L157.24 7.38Q159.48 7.38 161.21 8.41Q162.94 9.44 163.94 11.39Q164.94 13.33 164.94 16.09L164.94 16.09L164.94 17.63L152.06 17.63L152.06 17.81Q152.06 20.57 153.60 22.17Q155.14 23.76 157.52 23.76L157.52 23.76Q159.16 23.76 160.26 23.04Q161.37 22.32 161.65 21.45L161.65 21.45L164.73 21.45Q164.34 23.02 163.26 24.14Q162.17 25.27 160.65 25.84Q159.13 26.42 157.45 26.42ZM157.17 10.11L157.17 10.11Q155.00 10.11 153.61 11.49Q152.23 12.87 152.06 15.04L152.06 15.04L161.86 15.04Q161.72 12.80 160.47 11.46Q159.23 10.11 157.17 10.11ZM175.16 26.42L175.16 26.42Q174.25 26.42 173.39 26.26Q172.53 26.11 171.73 25.86L171.73 25.86Q170.12 25.34 169.07 24.14Q168.02 22.95 167.74 21.03L167.74 21.03L170.68 21.03Q170.96 22.32 172.13 23.01Q173.30 23.69 175.09 23.69L175.09 23.69Q176.87 23.69 177.90 22.95Q178.94 22.22 178.94 20.89L178.94 20.89Q178.94 19.95 178.22 19.11Q177.50 18.27 176.28 18.09L176.28 18.09L173.13 17.63Q170.78 17.28 169.43 16.18Q168.09 15.08 168.09 12.91L168.09 12.91Q168.09 11.40 168.93 10.14Q169.77 8.88 171.25 8.13Q172.74 7.38 174.74 7.38L174.74 7.38Q177.57 7.38 179.37 8.76Q181.18 10.14 181.60 12.42L181.60 12.42L178.66 12.42Q177.78 10.04 174.74 10.04L174.74 10.04Q173.06 10.04 172.08 10.81Q171.10 11.58 171.10 12.70L171.10 12.70Q171.10 14.48 173.62 14.87L173.62 14.87L176.84 15.36Q178.38 15.57 179.53 16.11Q180.69 16.66 181.32 17.76Q181.95 18.86 181.95 20.75L181.95 20.75Q181.95 22.57 181.02 23.85Q180.09 25.13 178.55 25.77Q177.01 26.42 175.16 26.42ZM188.67 26L185.66 26L185.66 0.52L188.67 0.52L188.67 15.53L196.58 7.80L200.43 7.80L192.52 15.60L200.92 26L197.00 26L190.38 17.53L188.67 19.04L188.67 26Z"/></g>
        
      </svg>
    