
      <svg data-logo="logo" xmlns="http://www.w3.org/2000/svg" viewBox="0 0 259 42">
        <g id="logogram" transform="translate(0, 1) rotate(0) "><path d="M33.724 36.5809C37.7426 32.5622 40.0003 27.1118 40.0003 21.4286C40.0003 15.7454 37.7426 10.2949 33.724 6.27629C29.7054 2.25765 24.2549 1.02188e-06 18.5717 0C12.8885 -1.02188e-06 7.43807 2.25764 3.41943 6.27628L10.4905 13.3473C11.6063 14.4631 13.4081 14.4074 14.8276 13.7181C15.9836 13.1568 17.2622 12.8571 18.5717 12.8571C20.845 12.8571 23.0252 13.7602 24.6326 15.3677C26.2401 16.9751 27.1431 19.1553 27.1431 21.4286C27.1431 22.7381 26.8435 24.0167 26.2822 25.1727C25.5929 26.5922 25.5372 28.394 26.6529 29.5098L33.724 36.5809Z" fill="#E34E30"/><path d="M30 40H19.5098C17.9943 40 16.5408 39.398 15.4692 38.3263L1.67368 24.5308C0.60204 23.4592 0 22.0057 0 20.4902V10L30 40Z" fill="#21201F"/><path d="M10.7143 39.9999H4.28571C1.91878 39.9999 0 38.0812 0 35.7142V29.2856L10.7143 39.9999Z" fill="#21201F"/></g>
        <g id="logotype" transform="translate(46, 7.5)"><path fill="#21201F" d="M16.99 27.42L16.99 27.42Q13.18 27.42 10.57 25.86Q7.96 24.30 6.88 21.50L6.88 21.50L11.92 19.68Q12.41 21.36 13.75 22.17Q15.10 22.98 17.02 22.98L17.02 22.98Q18.04 22.98 18.98 22.75Q19.93 22.52 20.56 21.98Q21.19 21.43 21.19 20.52L21.19 20.52Q21.19 19.30 20 18.62Q18.81 17.93 16.92 17.59L16.92 17.59L14.09 17.02Q12.20 16.64 10.57 15.85Q8.94 15.06 7.96 13.75Q6.98 12.44 6.98 10.44L6.98 10.44Q6.98 8.55 7.86 7.19Q8.73 5.82 10.18 4.95Q11.64 4.07 13.39 3.64Q15.14 3.20 16.89 3.20L16.89 3.20Q18.77 3.20 20.54 3.72Q22.31 4.25 23.71 5.35Q25.11 6.45 25.85 8.27L25.85 8.27L20.84 10.09Q20.39 8.90 19.21 8.27Q18.04 7.64 16.40 7.64L16.40 7.64Q14.79 7.64 13.72 8.22Q12.65 8.80 12.65 9.88L12.65 9.88Q12.65 10.76 13.39 11.39Q14.12 12.02 15.31 12.26L15.31 12.26L18.46 12.89Q19.90 13.17 21.37 13.61Q22.84 14.05 24.08 14.77Q25.32 15.48 26.09 16.67Q26.86 17.86 26.86 19.68L26.86 19.68Q26.86 21.54 26.00 22.99Q25.15 24.45 23.73 25.43Q22.31 26.41 20.56 26.91Q18.81 27.42 16.99 27.42ZM33.79 6.77L33.79 6.77Q32.50 6.77 31.57 5.84Q30.64 4.91 30.64 3.62L30.64 3.62Q30.64 2.29 31.57 1.38Q32.50 0.47 33.79 0.47L33.79 0.47Q35.12 0.47 36.03 1.38Q36.94 2.29 36.94 3.62L36.94 3.62Q36.94 4.91 36.03 5.84Q35.12 6.77 33.79 6.77ZM36.45 27L31.10 27L31.10 13.70L27.81 13.70L27.81 9.64L36.45 9.64L36.45 27ZM48.17 27L44.78 27Q42.64 27 41.38 26.63Q40.13 26.27 39.58 25.20Q39.04 24.13 39.04 22.10L39.04 22.10L39.04 3.62L44.36 3.62L44.36 20.70Q44.36 21.93 44.85 22.29Q45.34 22.66 46.67 22.66L46.67 22.66L48.17 22.66L48.17 27ZM59.76 27L53.77 27L47.58 9.64L53.07 9.64L56.78 21.47L60.49 9.64L65.99 9.64L59.76 27ZM75.30 27.42L75.30 27.42Q72.50 27.42 70.35 26.32Q68.19 25.21 66.99 23.15Q65.78 21.09 65.78 18.21L65.78 18.21Q65.78 15.45 67.06 13.42Q68.33 11.39 70.45 10.27Q72.57 9.15 75.09 9.15L75.09 9.15Q77.96 9.15 80.01 10.50Q82.06 11.84 83.11 14.21Q84.16 16.57 83.98 19.65L83.98 19.65L71.13 19.65Q71.28 21.47 72.48 22.38Q73.69 23.29 75.16 23.29L75.16 23.29Q76.38 23.29 77.28 22.92Q78.17 22.55 78.66 21.99L78.66 21.99L82.89 23.54Q81.53 25.53 79.48 26.48Q77.44 27.42 75.30 27.42ZM71.13 16.50L71.13 16.50L79.05 16.50Q79.01 14.82 77.89 13.96Q76.77 13.10 75.23 13.10L75.23 13.10Q73.72 13.10 72.55 13.91Q71.38 14.71 71.13 16.50ZM91.12 27L85.80 27L85.80 9.64L90 9.64L90.94 12.82Q91.75 10.72 93.15 9.88Q94.55 9.04 96.55 9.15L96.55 9.15L96.55 14.47Q96.13 14.40 95.81 14.38Q95.50 14.36 95.11 14.36L95.11 14.36Q93.19 14.36 92.15 15.27Q91.12 16.18 91.12 18.25L91.12 18.25L91.12 27ZM102.25 11.81L98.26 11.81L97.77 3.62L102.74 3.62L102.25 11.81ZM112.68 27.42L112.68 27.42Q109.63 27.42 107.41 26.30Q105.19 25.18 104.17 23.01L104.17 23.01L108.69 21.36Q109.07 22.45 110.18 22.99Q111.28 23.54 112.78 23.54L112.78 23.54Q114.08 23.54 115.08 23.13Q116.07 22.73 116.07 21.93L116.07 21.93Q116.07 21.36 115.48 20.98Q114.88 20.59 113.38 20.35L113.38 20.35L110.26 19.82Q107.74 19.41 106.17 18.11Q104.59 16.81 104.59 14.64L104.59 14.64Q104.59 12.82 105.70 11.60Q106.80 10.38 108.62 9.76Q110.44 9.15 112.57 9.15L112.57 9.15Q115.06 9.15 117.18 10.04Q119.29 10.93 120.27 13.00L120.27 13.00L115.79 14.64Q115.55 13.70 114.64 13.37Q113.73 13.03 112.54 13.03L112.54 13.03Q109.67 13.03 109.67 14.43L109.67 14.43Q109.67 14.96 110.16 15.29Q110.65 15.62 111.80 15.83L111.80 15.83L115.02 16.43Q118.17 16.99 119.68 18.07Q121.18 19.16 121.18 21.33L121.18 21.33Q121.18 23.36 120.03 24.73Q118.87 26.09 116.95 26.75Q115.02 27.42 112.68 27.42ZM141.17 27L133.47 27L133.47 3.62L141.17 3.62Q144.04 3.62 146.51 4.20Q148.97 4.77 150.81 6.12Q152.65 7.47 153.68 9.73Q154.71 11.98 154.71 15.31L154.71 15.31Q154.71 18.67 153.68 20.91Q152.65 23.15 150.81 24.50Q148.97 25.84 146.51 26.42Q144.04 27 141.17 27L141.17 27ZM139.00 8.20L139.00 22.34L141.27 22.34Q142.78 22.34 144.16 22.10Q145.54 21.86 146.65 21.14Q147.75 20.42 148.38 19.02Q149.01 17.62 149.01 15.31L149.01 15.31Q149.01 13.00 148.38 11.58Q147.75 10.16 146.65 9.45Q145.54 8.73 144.16 8.47Q142.78 8.20 141.27 8.20L141.27 8.20L139.00 8.20ZM165.60 27.42L165.60 27.42Q162.80 27.42 160.65 26.32Q158.49 25.21 157.29 23.15Q156.08 21.09 156.08 18.21L156.08 18.21Q156.08 15.45 157.36 13.42Q158.63 11.39 160.75 10.27Q162.87 9.15 165.39 9.15L165.39 9.15Q168.26 9.15 170.31 10.50Q172.35 11.84 173.40 14.21Q174.45 16.57 174.28 19.65L174.28 19.65L161.43 19.65Q161.57 21.47 162.78 22.38Q163.99 23.29 165.46 23.29L165.46 23.29Q166.68 23.29 167.58 22.92Q168.47 22.55 168.96 21.99L168.96 21.99L173.19 23.54Q171.83 25.53 169.78 26.48Q167.73 27.42 165.60 27.42ZM161.43 16.50L161.43 16.50L169.34 16.50Q169.31 14.82 168.19 13.96Q167.07 13.10 165.53 13.10L165.53 13.10Q164.02 13.10 162.85 13.91Q161.68 14.71 161.43 16.50ZM183.59 27.42L183.59 27.42Q180.54 27.42 178.32 26.30Q176.10 25.18 175.09 23.01L175.09 23.01L179.60 21.36Q179.98 22.45 181.09 22.99Q182.19 23.54 183.69 23.54L183.69 23.54Q184.99 23.54 185.99 23.13Q186.98 22.73 186.98 21.93L186.98 21.93Q186.98 21.36 186.39 20.98Q185.79 20.59 184.29 20.35L184.29 20.35L181.17 19.82Q178.66 19.41 177.08 18.11Q175.50 16.81 175.50 14.64L175.50 14.64Q175.50 12.82 176.61 11.60Q177.71 10.38 179.53 9.76Q181.35 9.15 183.48 9.15L183.48 9.15Q185.97 9.15 188.09 10.04Q190.20 10.93 191.19 13.00L191.19 13.00L186.70 14.64Q186.46 13.70 185.55 13.37Q184.64 13.03 183.45 13.03L183.45 13.03Q180.58 13.03 180.58 14.43L180.58 14.43Q180.58 14.96 181.07 15.29Q181.56 15.62 182.72 15.83L182.72 15.83L185.94 16.43Q189.09 16.99 190.59 18.07Q192.09 19.16 192.09 21.33L192.09 21.33Q192.09 23.36 190.94 24.73Q189.78 26.09 187.86 26.75Q185.94 27.42 183.59 27.42ZM199.41 27L194.09 27L194.09 3.62L199.41 3.62L199.41 16.22L205.22 9.64L211.52 9.64L204.73 16.88L212.05 27L205.75 27L201.23 20.70L199.41 22.63L199.41 27Z"/></g>
        
      </svg>
    